<svg width="640" height="560" viewBox="0 0 640 560" fill="none" xmlns="http://www.w3.org/2000/svg">
  <defs>
    <linearGradient id="blueGradient" x1="0" y1="0" x2="1" y2="1">
      <stop offset="0%" stop-color="#1D4D8E"/>
      <stop offset="100%" stop-color="#1C9ED9"/>
    </linearGradient>
    <linearGradient id="accentGradient" x1="0" y1="0" x2="1" y2="1">
      <stop offset="0%" stop-color="#22BBDA" stop-opacity="0.8"/>
      <stop offset="100%" stop-color="#0068E0" stop-opacity="0.6"/>
    </linearGradient>
  </defs>
  <rect x="20" y="20" width="600" height="520" rx="40" fill="url(#blueGradient)" opacity="0.95"/>
  <path d="M110 430C150 360 260 300 340 370C420 440 500 320 540 250" stroke="#22BBDA" stroke-width="18" stroke-linecap="round" opacity="0.75"/>
  <circle cx="170" cy="210" r="48" fill="#0A1F3B" stroke="#22BBDA" stroke-width="8"/>
  <circle cx="460" cy="130" r="36" fill="#0A1F3B" stroke="#22BBDA" stroke-width="6"/>
  <rect x="118" y="100" width="378" height="234" rx="28" fill="rgba(255, 255, 255, 0.08)"/>
  <path d="M160 160H520" stroke="#D5F5FF" stroke-width="5" stroke-linecap="round" opacity="0.85"/>
  <path d="M160 216H520" stroke="#A8DFF5" stroke-width="4" stroke-linecap="round" opacity="0.65"/>
  <path d="M160 276H400" stroke="#A8DFF5" stroke-width="4" stroke-linecap="round" opacity="0.65"/>
  <rect x="176" y="328" width="80" height="28" rx="14" fill="#22BBDA" opacity="0.95"/>
  <rect x="270" y="328" width="180" height="28" rx="14" fill="#22BBDA" opacity="0.7"/>
  <rect x="160" y="380" width="320" height="18" rx="9" fill="#D5F5FF" opacity="0.6"/>
  <circle cx="520" cy="430" r="48" fill="url(#accentGradient)" opacity="0.85"/>
  <circle cx="520" cy="430" r="22" fill="#fff" opacity="0.8"/>
</svg>
